<mxfile host="app.diagrams.net" modified="2022-09-25T05:54:46.914Z" agent="5.0 (Windows)" etag="BaX5QRMSQxQ42xtG-JWr" version="20.3.2" type="github">
  <diagram id="RxlkIarcW2p0RG7R7ZT7" name="Page-1">
    <mxGraphModel dx="856" dy="434" grid="1" gridSize="10" guides="1" tooltips="1" connect="1" arrows="1" fold="1" page="1" pageScale="1" pageWidth="850" pageHeight="1100" math="0" shadow="0">
      <root>
        <mxCell id="0" />
        <mxCell id="1" parent="0" />
        <mxCell id="kcd32M32K82_xFUZd39J-3" value="" style="edgeStyle=orthogonalEdgeStyle;rounded=0;orthogonalLoop=1;jettySize=auto;html=1;" edge="1" parent="1" source="kcd32M32K82_xFUZd39J-1" target="kcd32M32K82_xFUZd39J-2">
          <mxGeometry relative="1" as="geometry" />
        </mxCell>
        <mxCell id="kcd32M32K82_xFUZd39J-1" value="Start" style="rounded=1;whiteSpace=wrap;html=1;" vertex="1" parent="1">
          <mxGeometry x="360" y="70" width="120" height="60" as="geometry" />
        </mxCell>
        <mxCell id="kcd32M32K82_xFUZd39J-6" value="" style="edgeStyle=orthogonalEdgeStyle;rounded=0;orthogonalLoop=1;jettySize=auto;html=1;" edge="1" parent="1" source="kcd32M32K82_xFUZd39J-2" target="kcd32M32K82_xFUZd39J-5">
          <mxGeometry relative="1" as="geometry" />
        </mxCell>
        <mxCell id="kcd32M32K82_xFUZd39J-9" value="" style="edgeStyle=orthogonalEdgeStyle;rounded=0;orthogonalLoop=1;jettySize=auto;html=1;" edge="1" parent="1" source="kcd32M32K82_xFUZd39J-2" target="kcd32M32K82_xFUZd39J-8">
          <mxGeometry relative="1" as="geometry" />
        </mxCell>
        <mxCell id="kcd32M32K82_xFUZd39J-2" value="letter in word?" style="rhombus;whiteSpace=wrap;html=1;rounded=1;" vertex="1" parent="1">
          <mxGeometry x="360" y="230" width="120" height="80" as="geometry" />
        </mxCell>
        <mxCell id="kcd32M32K82_xFUZd39J-4" value="give user a chance to choose a letter" style="text;html=1;strokeColor=none;fillColor=none;align=center;verticalAlign=middle;whiteSpace=wrap;rounded=0;" vertex="1" parent="1">
          <mxGeometry x="430" y="160" width="60" height="30" as="geometry" />
        </mxCell>
        <mxCell id="kcd32M32K82_xFUZd39J-5" value="show the position of the letter and the number of letters in the word" style="whiteSpace=wrap;html=1;rounded=1;" vertex="1" parent="1">
          <mxGeometry x="560" y="240" width="160" height="60" as="geometry" />
        </mxCell>
        <mxCell id="kcd32M32K82_xFUZd39J-7" value="Yes" style="text;html=1;strokeColor=none;fillColor=none;align=center;verticalAlign=middle;whiteSpace=wrap;rounded=0;" vertex="1" parent="1">
          <mxGeometry x="480" y="230" width="60" height="30" as="geometry" />
        </mxCell>
        <mxCell id="kcd32M32K82_xFUZd39J-8" value="complete the hanged man by adding one line (out of 6)" style="whiteSpace=wrap;html=1;rounded=1;" vertex="1" parent="1">
          <mxGeometry x="360" y="400" width="120" height="60" as="geometry" />
        </mxCell>
        <mxCell id="kcd32M32K82_xFUZd39J-10" value="No" style="text;html=1;strokeColor=none;fillColor=none;align=center;verticalAlign=middle;whiteSpace=wrap;rounded=0;" vertex="1" parent="1">
          <mxGeometry x="410" y="340" width="60" height="30" as="geometry" />
        </mxCell>
      </root>
    </mxGraphModel>
  </diagram>
</mxfile>
